<?xml version="1.0" encoding="utf-8"?>
<!-- Generator: Adobe Illustrator 15.0.0, SVG Export Plug-In . SVG Version: 6.00 Build 0)  -->
<!DOCTYPE svg PUBLIC "-//W3C//DTD SVG 1.1//EN" "http://www.w3.org/Graphics/SVG/1.1/DTD/svg11.dtd">
<svg version="1.1" id="Layer_1" xmlns="http://www.w3.org/2000/svg" xmlns:xlink="http://www.w3.org/1999/xlink" x="0px" y="0px"
	 width="512px" height="512px" viewBox="0 0 512 512" enable-background="new 0 0 512 512" xml:space="preserve">
<path fill="#2A99B8" d="M123.874,345.975c-9.592-101.218,56.223-108.958,64.909-192.042c6.601-63.344,36.534-76.355,55.314-79.288
	c-4.415-1.019-8.507-1.468-11.997-1.634c-13.299,1.423-60.786,15.869-67.47,79.97c-8.666,83.092-74.501,90.827-64.909,192.05
	c6.34,66.867,67.865,123.174,143.145,121.143c0.787-0.024,1.566-0.086,2.35-0.127C180.155,457.93,129.592,406.262,123.874,345.975z"
	/>
<path fill="#F7953A" d="M330.219,156.025c-10.98-62.346-45.871-70.924-63.939-71.801c3.223-9.626,6.711-20.114,18.373-33.089
	l-8.245-5.36c-13.511,13.21-18.197,27.764-21.106,39.009c-17.927,2.617-47.197,14.632-53.595,75.979
	c-8.302,79.515-71.295,86.924-62.12,183.801c6.073,63.995,64.947,117.881,137.001,115.932
	c72.046-1.937,126.976-62.713,128.491-125.715C407.44,237.503,344.072,234.734,330.219,156.025z M381.109,329.016
	c-1.273,57.385-49.608,112.696-113.098,114.386c-2.715,0.071-5.404,0.017-8.08-0.097c58.647-6.721,102.196-59.236,103.403-113.662
	c1.978-88.613-53.856-91.205-66.142-162.909c-8.82-51.433-34.858-62.735-51.527-65.013c1.109-0.243,2.187-0.44,3.219-0.59
	l9.676-0.497c15.92,0.823,46.668,8.668,56.407,65.473C327.253,237.811,383.089,240.403,381.109,329.016z"/>
</svg>
